PathFileType	4	(X/Y/Z)	Patient4_TMGait_0pt5_01_right_17.trc.trc
DataRate	CameraRate	NumFrames	NumMarkers	Units	OrigDataRate	OrigDataStartFrame	OrigNumFrames
75.675675675676	75.675675675676	5	33	mm	75.675675675676	106	       141
Frame#	Time	L.ASIS			Sacral			L.Shoulder			Chest			R.Shoulder			Neck			R.ASIS			R.Thigh.Superior			R.Thigh.Lateral			R.Thigh.Inferior			R.Patella			L.Thigh.Superior			L.Thigh.Lateral			L.Thigh.Inferior			L.Patella			L.Shank.Superior			L.Shank.Lateral			L.Shank.Inferior			R.Shank.Superior			R.Shank.Lateral			R.Shank.Inferior			R.Heel			R.Midfoot.Superior			R.Midfoot.Lateral			R.Toe			L.Heel			L.Midfoot.Lateral			L.Midfoot.Superior			L.Toe			L.Elbow			L.Wrist			R.Elbow			R.Wrist			
		X1	Y1	Z1	X2	Y2	Z2	X3	Y3	Z3	X4	Y4	Z4	X5	Y5	Z5	X6	Y6	Z6	X7	Y7	Z7	X8	Y8	Z8	X9	Y9	Z9	X10	Y10	Z10	X11	Y11	Z11	X12	Y12	Z12	X13	Y13	Z13	X14	Y14	Z14	X15	Y15	Z15	X16	Y16	Z16	X17	Y17	Z17	X18	Y18	Z18	X19	Y19	Z19	X20	Y20	Z20	X21	Y21	Z21	X22	Y22	Z22	X23	Y23	Z23	X24	Y24	Z24	X25	Y25	Z25	X26	Y26	Z26	X27	Y27	Z27	X28	Y28	Z28	X29	Y29	Z29	X30	Y30	Z30	X31	Y31	Z31	X32	Y32	Z32	X33	Y33	Z33	

106	23.457500000000	861.584479522551	962.031432643216	283.170851361425	636.804330653612	1009.954465633577	426.483908935299	826.424525948474	1436.716039990941	247.358154325215	917.596911884101	1369.984367664337	416.719044477114	820.128295563106	1446.174981000061	583.580128628106	816.215751960576	1499.817545111922	397.108128637038	855.686584896466	950.845378084765	557.615612229641	941.606724797164	783.257614562978	532.764514468246	903.006927143084	662.797297047606	606.845755651928	993.955001148177	624.910950558826	529.188691565583	1022.205946940656	521.796270946830	553.998622185715	895.298791603204	744.686857517384	319.213535227024	800.958138601152	634.192654373535	260.277063995592	874.600673212196	552.318670558648	329.231840058941	868.589790451310	482.579709439520	342.421028955040	839.494142614480	412.375822019933	334.950185812316	748.148626866122	301.040330352437	282.076373282315	785.498191185657	190.279754708500	360.278611553316	969.110734265574	435.781359690441	560.218835806871	867.413432094657	358.464761045987	617.608346365176	891.691062063806	250.786326614168	569.911515880387	725.083436200187	123.234968295610	535.309454978770	900.882929185544	131.637267966060	588.622183126536	796.197223066649	93.473986793571	616.250929773497	997.330404059974	49.852573522916	626.030523767495	648.464485160163	38.287926421176	399.673073671872	725.967839762233	35.069434367044	321.992475593502	808.298859490840	95.371611898205	352.176619274218	937.858846367345	42.113714090554	329.730882831604	827.354486933154	1085.603256841318	116.967725161792	1029.904577371247	920.696296091276	124.899468546951	748.978001837219	1104.859437985591	697.234746635644	782.786142446164	844.684327763498	700.471098172013	
107	23.470714285714	862.298442556621	962.087152714219	283.473025941589	636.532018951433	1010.149415041034	425.490592547625	827.517078789013	1436.768623803026	247.512558900529	917.502170955021	1369.963043283142	417.469280105763	819.057987857128	1446.232411783212	583.718170271923	816.276974993761	1499.881729814653	397.241434900048	854.822629408908	950.897461863923	557.999288121478	940.221850452815	783.265217459613	533.433937480855	901.315278962379	662.818753932076	607.633183652742	992.182955092335	624.893169059298	530.040139200882	1021.630892529813	524.015083771181	554.688571518500	893.424125381698	743.755102739438	319.525788745474	797.663627267660	634.226398793345	260.094482244119	869.964503158652	551.560077955780	329.119459915496	863.109324528372	482.053026340887	342.260366199053	833.958221399857	412.113363025317	334.723726161706	742.256115855949	301.077868755265	281.849888522032	779.205755365249	190.189766704974	360.117018455093	972.823220282011	436.936755501844	561.271945623858	876.000086094809	354.357230732968	619.458154404010	906.132886230138	248.025530073945	571.801425988957	747.080842981234	111.160982799154	538.092191957543	922.234769374922	129.396616059317	590.682943959276	820.057445212589	85.578434842942	618.897266140440	1023.196669573458	53.362177832876	627.808963532943	641.867457039981	38.396979389146	399.571951571391	719.343714034317	35.069947577920	321.974612988751	801.716436896661	95.330155975646	352.107672312968	931.251930253358	41.950871856270	329.724826100699	831.068364181986	1086.342933616746	115.915818044617	1038.759937011265	928.382937749636	124.581667469125	740.174175133589	1107.127726140933	697.276156927560	763.075036471953	845.847739451444	703.900461652806	
108	23.483928571429	862.947433635483	962.039485793119	283.914885498595	636.306727054507	1010.305294899132	424.708146205760	828.546124251275	1436.703436712649	247.789835835129	917.450936276979	1369.856010232576	418.283347202812	818.138529799174	1446.270523120207	583.929423009231	816.406301080459	1499.865207574396	397.469261581973	854.081714040994	950.827505324717	558.523287928324	938.598988090300	782.827681886995	534.246791255606	899.088195959714	662.449358082781	608.505145308698	989.854502369082	624.336316650839	530.980269926362	1020.327641677748	525.780951474035	555.281539412251	891.529465098757	742.806835029327	319.881022442621	794.279130627180	634.282122685929	259.982341275103	865.232205005383	550.821599535415	329.022644170213	857.547638180581	481.564959737633	342.100715352833	828.343898381212	411.879771235970	334.507453438394	736.275319919727	301.147724139435	281.633787026587	772.892393695600	190.122410785508	359.951220666704	975.956132295570	437.940235283897	562.275829587080	884.465131032397	350.326187730336	621.426861238887	920.360531691435	245.700304334187	573.693817272009	769.425379338133	99.880235696953	541.068229544806	943.503442360586	127.892832327928	592.671579558935	844.186535592968	78.519085358045	621.552554443419	1048.737611262167	57.840795180604	629.285431927573	635.263934631993	38.513137967723	399.470108102254	712.714003423792	35.069701825524	321.962115540849	795.127489870106	95.291031063817	352.037368536071	924.633771201988	41.795839677992	329.723202176762	834.754008842831	1086.969597385132	115.057443259195	1047.220729500430	935.982906093988	124.431924872294	731.306778814750	1109.729559086285	697.554580840216	744.749251220433	848.008484493699	707.012954907135	
109	23.497142857143	863.517973084783	961.886399646369	284.496389604692	636.137120462549	1010.409779929737	424.146451368120	829.510824263246	1436.521757371337	248.188654318893	917.438653861873	1369.665910115328	419.164535346488	817.355888952817	1446.283905693459	584.213388716082	816.591477289251	1499.765011906881	397.793164027809	853.484274771637	950.638678211203	559.187867257205	936.802488078394	781.966001646349	535.206626969857	896.430604737254	661.718255795740	609.471657379747	987.076329224464	623.278023861845	532.006278995720	1018.391990275140	527.079427775214	555.773394158620	889.602069337609	741.839283945989	320.273003629419	790.804226013258	634.361489048376	259.930958910624	860.410481410802	550.103125276486	328.930642779444	851.921219601361	481.113757702971	341.924714720132	822.652589781382	411.676134332409	334.292754215101	730.201644228573	301.253206227563	281.424101513924	766.555496635945	190.079660587891	359.775269806610	978.521152919743	438.800692499103	563.219624184817	892.715628177857	346.465973628086	623.456412758601	934.185825689918	243.870938798269	575.523839747435	791.759258887249	89.626250259109	544.119522259695	964.396668729386	127.126973526246	594.500302168629	868.203951129435	72.404692525077	624.084475250542	1073.582789318411	63.127792306874	630.352931681147	628.650440367385	38.635966029133	399.372292273743	706.077514706536	35.068631223619	321.954300940864	788.532073396754	95.253903727954	351.963831898411	918.003405176685	41.648901107055	329.725524665180	838.379089235903	1087.471081384337	114.417415186262	1055.262177221113	943.446108136833	124.454897272498	722.472008713175	1112.634759018072	698.048164719256	727.850518265764	850.928527309257	709.799431660458	
110	23.510357142857	864.015106008104	961.634685050063	285.216910614802	636.037353851620	1010.444209308639	423.815840633357	830.408382970838	1436.226036859986	248.708132737941	917.457986063748	1369.397505113642	420.117492549070	816.692913012221	1446.267918391634	584.575478772545	816.813756765825	1499.578280671061	398.214830972048	853.047720107855	950.334253163932	559.991751779387	934.910449850314	780.717486697832	536.310980996045	893.479824390576	660.666443820926	610.540432435366	983.978479440501	621.772305715393	533.109013633521	1015.947278897235	527.910110844263	556.172516726625	887.634173952435	740.849836288244	320.703048384316	787.247108443435	634.464275155016	259.934535820855	855.514396296264	549.403223292806	328.839828505287	846.253367028444	480.694269997440	341.721672631199	816.891856399344	411.502704211016	334.075445534587	724.036183736788	301.397369629248	281.221202374986	760.195008906866	190.062539121741	359.585806760509	980.542140943047	439.517175161131	564.103072188521	900.627691092453	342.850068642524	625.480754332749	947.397336630752	242.549734582085	577.234503862760	813.656189954996	80.573473188230	547.107270878177	984.582794836975	127.026138594848	596.099254544647	891.656414809647	67.275515765877	626.367052399636	1097.329804098241	68.958569250711	630.955420420188	622.025497734829	38.764541643697	399.283368922743	699.433771200844	35.067179165585	321.950647716577	781.931056026826	95.218407595918	351.886052128296	911.360861122899	41.510752800465	329.731067225643	841.908763038760	1087.837263167663	114.019026492312	1062.858164513428	950.722566455806	124.654133507508	713.792859415852	1115.789455357341	698.726890693223	712.387814104423	854.373553954869	712.270642655188	
